# Blender v3.2.2 OBJ File: 'box-optimized.blend'
# www.blender.org
o cushions-optimized
v 41.547611 5.947247 36.252914
v 41.547611 5.947247 39.252922
v -41.485096 -5.947244 39.252922
v -41.536381 145.333466 225.221680
v 5.913594 145.329117 225.221680
v 5.910181 109.741676 228.221695
v 5.913594 145.329117 228.221695
v -41.536381 145.333466 228.221695
v 41.581306 -23.280788 56.652348
v -88.943832 5.956064 36.252914
v -41.493649 5.956064 36.252914
v -88.943832 -17.768557 36.252914
v -41.493649 -17.768557 36.252914
v -41.493649 -17.768557 39.252922
v -41.493649 5.956063 39.252922
v -88.943832 -17.768557 39.252922
v -88.943832 5.956063 39.252922
v 89.007347 5.954118 36.252914
v 89.005142 -17.770971 36.252914
v 89.005142 -17.770971 39.252922
v 89.007347 5.954117 39.252922
v -41.456276 -26.280790 68.496597
v -41.456276 -23.281733 56.633812
v 41.518787 109.731438 225.221680
v 41.518787 14.831065 225.221680
v 41.518787 14.831065 228.221695
v 41.518787 109.731438 228.221695
v 41.518787 145.331070 225.221680
v 41.518787 145.331070 228.221695
v -88.912865 -23.284674 68.490250
v -41.462627 -23.280266 68.490250
v -88.912865 -23.282206 44.765621
v -41.462627 -23.277849 44.765621
v -41.462154 -26.277847 44.765621
v -88.912338 -26.282206 44.765621
v -88.912338 -26.284676 68.490250
v 5.912596 14.831065 225.221680
v -41.537590 109.731438 225.221680
v -41.537590 14.831065 225.221680
v -41.537590 14.831065 228.221695
v 5.912596 14.831065 228.221695
v -41.537590 109.731438 228.221695
v 41.555901 -23.284674 68.490250
v 89.006096 -23.280266 68.490250
v 41.555901 -23.282206 44.765621
v 89.006096 -23.277849 44.765621
v 89.006607 -26.277847 44.765621
v 89.006607 -26.280264 68.490250
v 41.556377 -26.282206 44.765621
v 41.556377 -26.284676 68.490250
v 41.550552 -5.916484 39.249043
v 41.549343 -17.778793 39.249043
v 41.549080 -17.778793 36.249035
vt 0.789380 0.003040
vt 0.718291 0.003040
vt 0.718291 0.500661
vt 0.789380 0.500661
vt 0.181149 0.571595
vt 0.145431 0.571595
vt 0.145431 0.857341
vt 0.181149 0.857341
vt 0.361185 0.858115
vt 0.325467 0.858115
vt 0.325467 0.929551
vt 0.361185 0.929551
vt 0.219123 0.571595
vt 0.183404 0.571595
vt 0.183404 0.821630
vt 0.219123 0.821630
vt 0.576575 0.789298
vt 0.540857 0.789298
vt 0.540857 0.932171
vt 0.576575 0.932171
vt 0.399157 0.858115
vt 0.363439 0.858115
vt 0.363439 0.929550
vt 0.399157 0.929550
vt 0.500630 0.001127
vt 0.287488 0.001127
vt 0.287488 0.569506
vt 0.500630 0.569506
vt 0.467507 0.571760
vt 0.431793 0.571760
vt 0.431793 0.821764
vt 0.467507 0.821764
vt 0.429538 0.571760
vt 0.287488 0.571760
vt 0.287488 0.855861
vt 0.429538 0.855861
vt 0.257096 0.571595
vt 0.221377 0.571595
vt 0.221377 0.821627
vt 0.257096 0.821627
vt 0.935930 0.003040
vt 0.864955 0.003040
vt 0.864955 0.499869
vt 0.935930 0.499869
vt 0.036855 0.857950
vt 0.001127 0.857950
vt 0.001127 0.965132
vt 0.036855 0.965132
vt 0.644949 0.502916
vt 0.502885 0.502916
vt 0.502885 0.787044
vt 0.644949 0.787044
vt 0.001127 0.571595
vt 0.001127 0.855696
vt 0.143177 0.855696
vt 0.143177 0.571595
vt 0.973887 0.502123
vt 0.938173 0.502123
vt 0.938173 0.752120
vt 0.973887 0.752120
vt 0.112815 0.857950
vt 0.077090 0.857950
vt 0.077090 0.965126
vt 0.112815 0.965126
vt 0.502885 0.287509
vt 0.502885 0.500661
vt 0.716037 0.500661
vt 0.716037 0.287509
vt 0.323213 0.858115
vt 0.287488 0.858115
vt 0.287488 0.965287
vt 0.323213 0.965287
vt 0.973891 0.754374
vt 0.938173 0.754374
vt 0.938173 0.825809
vt 0.973891 0.825809
vt 0.827226 0.502916
vt 0.791507 0.502916
vt 0.791507 0.788661
vt 0.827226 0.788661
vt 0.682925 0.789270
vt 0.647203 0.789270
vt 0.647203 0.932157
vt 0.682925 0.932157
vt 0.758874 0.789270
vt 0.723154 0.789270
vt 0.723154 0.932151
vt 0.758874 0.932151
vt 0.074836 0.857950
vt 0.039109 0.857950
vt 0.039109 0.965131
vt 0.074836 0.965131
vt 0.285234 0.001127
vt 0.001127 0.001127
vt 0.001127 0.569341
vt 0.285234 0.569341
vt 0.614547 0.789298
vt 0.578829 0.789298
vt 0.578829 0.932171
vt 0.614547 0.932171
vt 0.862701 0.003040
vt 0.791634 0.003040
vt 0.791634 0.500503
vt 0.862701 0.500503
vt 0.715980 0.001127
vt 0.502885 0.001127
vt 0.502885 0.285255
vt 0.715980 0.285255
vt 0.219122 0.823884
vt 0.183404 0.823884
vt 0.183404 0.966756
vt 0.219122 0.966756
vt 0.538603 0.789298
vt 0.502885 0.789298
vt 0.502885 0.932171
vt 0.538603 0.932171
vt 0.827226 0.790915
vt 0.791507 0.790915
vt 0.791507 0.933787
vt 0.827226 0.933787
vt 0.647203 0.502916
vt 0.647203 0.787016
vt 0.789253 0.787016
vt 0.789253 0.502916
vt 0.467511 0.824018
vt 0.431793 0.824018
vt 0.431793 0.966890
vt 0.467511 0.966890
vt 0.181149 0.859595
vt 0.145431 0.859595
vt 0.145431 0.931030
vt 0.181149 0.931030
vt 0.720900 0.789270
vt 0.685179 0.789270
vt 0.685179 0.932153
vt 0.720900 0.932153
vt 0.257095 0.823881
vt 0.221377 0.823881
vt 0.221377 0.966753
vt 0.257095 0.966753
vt 0.864955 0.502123
vt 0.864955 0.998873
vt 0.935919 0.998873
vt 0.935919 0.502123
vn 0.0000 -0.0002 1.0000
vn -1.0000 0.0000 0.0000
vn 1.0000 -0.0001 -0.0000
vn -0.0001 -1.0000 0.0000
vn 0.0000 1.0000 0.0000
vn 0.0000 0.0000 1.0000
vn -0.0000 0.0001 1.0000
vn -0.0004 1.0000 0.0000
vn -0.0000 1.0000 -0.0002
vn 0.0000 -1.0000 0.0000
vn -0.0000 -0.0001 1.0000
vn -0.0001 1.0000 0.0001
vn 0.0000 0.0000 -1.0000
vn 1.0000 0.0000 0.0000
vn 1.0000 0.0002 0.0000
vn 0.0002 1.0000 0.0000
vn 0.0002 -1.0000 -0.0000
vn -0.0001 1.0000 0.0000
vn 0.0000 1.0000 0.0001
vn 0.0001 1.0000 0.0000
vn -1.0000 -0.0002 -0.0000
usemtl phoenix_storms/concrete1
s 1
f 15/1/1 3/2/1 51/3/1 2/4/1
f 39/5/2 40/6/2 42/7/2 38/8/2
f 18/9/3 21/10/3 20/11/3 19/12/3
f 14/13/4 13/14/4 53/15/4 52/16/4
f 10/17/5 17/18/5 15/19/5 11/20/5
f 12/21/2 16/22/2 17/23/2 10/24/2
f 27/25/6 6/26/6 41/27/6 26/28/6
f 50/29/7 43/30/7 31/31/7 22/32/7
f 17/33/6 16/34/6 14/35/6 15/36/6
f 11/37/8 15/38/8 2/39/8 1/40/8
f 23/41/9 31/42/9 43/43/9 9/44/9
f 25/45/10 26/46/10 41/47/10 37/48/10
f 2/49/11 52/50/11 20/51/11 21/52/11
f 46/53/12 45/54/12 43/55/12 44/56/12
f 34/57/13 33/58/13 45/59/13 49/60/13
f 38/61/2 42/62/2 8/63/2 4/64/2
f 29/65/6 7/66/6 6/67/6 27/68/6
f 28/69/14 29/70/14 27/71/14 24/72/14
f 44/73/15 48/74/15 47/75/15 46/76/15
f 24/77/14 27/78/14 26/79/14 25/80/14
f 1/81/16 2/82/16 21/83/16 18/84/16
f 19/85/17 20/86/17 52/87/17 53/88/17
f 5/89/18 7/90/18 29/91/18 28/92/18
f 6/93/6 42/94/6 40/95/6 41/96/6
f 13/97/10 14/98/10 16/99/10 12/100/10
f 9/101/19 45/102/19 33/103/19 23/104/19
f 8/105/6 42/106/6 6/107/6 7/108/6
f 33/109/13 34/110/13 35/111/13 32/112/13
f 37/113/10 41/114/10 40/115/10 39/116/10
f 4/117/20 8/118/20 7/119/20 5/120/20
f 33/121/12 32/122/12 30/123/12 31/124/12
f 46/125/13 47/126/13 49/127/13 45/128/13
f 32/129/21 35/130/21 36/131/21 30/132/21
f 30/133/11 36/134/11 22/135/11 31/136/11
f 43/137/6 50/138/6 48/139/6 44/140/6
f 14/141/6 52/142/6 51/143/6 3/144/6
