# Blender v3.2.2 OBJ File: 'box-optimized.blend'
# www.blender.org
o floors-optimized
v -166.059097 166.090820 10.221694
v 166.090820 166.059052 10.221694
v -166.090820 -166.059097 10.221679
v 166.059082 -166.090820 10.221679
v 166.059082 -166.090820 13.221685
v 166.090820 166.059052 13.221701
v -166.090820 -166.059097 13.221685
v -166.059097 166.090820 13.221701
v -154.189194 -154.167999 188.434082
v -154.189194 -154.167999 191.134277
v 166.081314 -166.018600 188.434082
v 166.081314 -166.018600 191.134277
v -166.062531 -154.131363 188.434082
v 71.187500 -154.131363 188.434082
v -166.062531 -165.993668 188.434082
v 71.187500 -165.993668 188.434082
v 71.187500 -165.993668 191.134277
v 71.187500 -154.131363 191.134277
v -166.062531 -165.993668 191.134277
v -166.062531 -154.131363 191.134277
v 166.083984 -23.696280 188.434082
v -166.065933 -23.728510 188.434082
v 166.065933 166.103516 188.434082
v -166.083984 166.071274 188.434082
v -166.083984 166.071274 191.134277
v -166.065933 -23.728510 191.134277
v 166.065933 166.103516 191.134277
v 166.083984 -23.696280 191.134277
v -166.054443 -59.294445 188.434082
v -154.192139 -59.292976 188.434082
v -154.195541 -23.705572 188.434082
v -154.195541 -23.705572 191.134277
v -154.192139 -59.292976 191.134277
v -166.054443 -59.294445 191.134277
v 94.925034 -154.131363 188.434082
v 94.925034 -165.993668 191.134277
v 94.925034 -154.131363 191.134277
v 142.350128 -23.668930 188.434082
v 142.350128 -166.018600 188.434082
v 94.899887 -23.668930 188.434082
v 94.899887 -166.018600 188.434082
v 142.350128 -166.018600 191.134277
v 94.899887 -23.668930 191.134277
v 142.350128 -23.668930 191.134277
vt 0.000648 0.000648
vt 0.000648 0.499352
vt 0.499352 0.499352
vt 0.499352 0.000648
vt 0.785622 0.000648
vt 0.500648 0.000648
vt 0.500648 0.499352
vt 0.785622 0.499352
vt 0.860761 0.786878
vt 0.878572 0.786878
vt 0.878572 0.430664
vt 0.860761 0.430664
vt 0.806025 0.645713
vt 0.806025 0.788199
vt 0.823835 0.788199
vt 0.823835 0.645713
vt 0.842943 0.645714
vt 0.825132 0.645714
vt 0.825132 0.699147
vt 0.842943 0.699147
vt 0.786918 0.430664
vt 0.786918 0.644417
vt 0.822543 0.644417
vt 0.822543 0.430664
vt 0.499352 0.999352
vt 0.499352 0.500648
vt 0.000648 0.500648
vt 0.000648 0.999352
vt 0.786918 0.000648
vt 0.786918 0.214379
vt 0.858161 0.214379
vt 0.858161 0.000648
vt 0.786918 0.429368
vt 0.858149 0.429368
vt 0.858149 0.215675
vt 0.786918 0.215675
vt 0.785622 0.999352
vt 0.785622 0.500648
vt 0.500648 0.500648
vt 0.500648 0.999352
vt 0.877268 0.356862
vt 0.877268 0.000648
vt 0.859457 0.000648
vt 0.859457 0.356862
vt 0.825132 0.700443
vt 0.825132 0.736083
vt 0.842952 0.736083
vt 0.842952 0.700443
vt 0.786918 0.789495
vt 0.786918 0.842928
vt 0.804729 0.842928
vt 0.804729 0.789495
vt 0.887521 0.000648
vt 0.878564 0.000648
vt 0.878564 0.251441
vt 0.887521 0.251441
vt 0.804729 0.645713
vt 0.786918 0.645713
vt 0.786918 0.788199
vt 0.804729 0.788199
vt 0.859465 0.430664
vt 0.823840 0.430664
vt 0.823840 0.644417
vt 0.859465 0.644417
vt 0.842947 0.737379
vt 0.825132 0.737379
vt 0.825132 0.773010
vt 0.842947 0.773010
vn 0.0000 -0.0000 1.0000
vn -0.0000 0.0000 -1.0000
vn -0.0001 -1.0000 0.0000
usemtl metal6
s 1
f 8/1/1 7/2/1 5/3/1 6/4/1
f 28/5/1 27/6/1 25/7/1 26/8/1
f 20/9/1 19/10/1 17/11/1 18/12/1
f 30/13/2 9/14/2 13/15/2 29/16/2
f 34/17/1 33/18/1 32/19/1 26/20/1
f 39/21/2 38/22/2 21/23/2 11/24/2
f 4/25/2 3/26/2 1/27/2 2/28/2
f 41/29/2 40/30/2 38/31/2 39/32/2
f 44/33/1 43/34/1 36/35/1 42/36/1
f 24/37/2 23/38/2 21/39/2 22/40/2
f 16/41/2 15/42/2 13/43/2 14/44/2
f 41/45/2 16/46/2 14/47/2 35/48/2
f 31/49/2 30/50/2 29/51/2 22/52/2
f 4/53/3 5/54/3 7/55/3 3/56/3
f 20/57/1 10/58/1 33/59/1 34/60/1
f 28/61/1 44/62/1 42/63/1 12/64/1
f 18/65/1 17/66/1 36/67/1 37/68/1
