# Blender v3.2.2 OBJ File: 'box-optimized.blend'
# www.blender.org
mtllib metal3.mtl
o -metal3-optimized_Garry's_Mod.009
v -48.937271 7.375003 213.377975
v -45.937271 7.375003 213.377975
v -48.937271 7.375003 216.377960
v -23.437483 154.219193 262.315430
v -23.437483 151.219193 262.314972
v -23.437483 154.220184 250.315430
v -23.437483 154.221191 238.315460
v -23.437483 151.220200 250.314987
v -23.437483 151.221115 238.314972
v -35.437485 151.219193 262.314972
v -41.437481 151.219193 260.707062
v -35.437485 151.220200 250.314987
v -45.829823 151.219711 256.314911
v -47.437485 151.220200 250.314987
v -47.437485 151.221115 238.314972
v -35.437485 151.221115 238.314972
v -35.437485 154.219193 262.315430
v -41.437481 154.219193 260.707520
v -45.829823 154.219711 256.315430
v -47.437485 154.220184 250.315430
v -47.437485 154.221191 238.315460
v -35.437485 154.221191 238.315460
v -35.437485 154.220184 250.315430
v -48.917011 152.737793 216.384781
v -48.958008 10.388182 216.371078
v -45.917011 152.736786 216.384781
v -48.958008 10.388652 213.371140
v -45.917011 152.737305 213.384781
v -48.917011 152.738266 213.384781
v 97.934586 -12.124990 62.315445
v 94.934578 -12.124990 62.314972
v 97.935791 -12.124989 50.315445
v 97.937050 -12.124989 38.315441
v 94.935791 -12.124989 50.314968
v 94.937050 -12.124989 38.314919
v 94.934578 -0.124988 62.314972
v 94.934845 5.875013 60.707039
v 94.935791 -0.124987 50.314968
v 94.935318 10.267083 56.314968
v 94.935791 11.875014 50.314968
v 94.937050 11.875014 38.314919
v 94.937050 -0.124987 38.314919
v 97.934586 -0.124988 62.315445
v 97.934853 5.875013 60.707516
v 97.935310 10.267083 56.315445
v 97.935791 11.875014 50.315445
v 97.937050 11.875014 38.315441
v 97.937050 -0.124987 38.315441
v 97.935791 -0.124987 50.315445
v -47.449924 151.216309 191.152832
v 47.449970 151.216309 191.152832
v -47.449924 151.221191 238.603058
v 47.449970 151.221191 238.603058
v 47.449970 154.221191 238.603058
v 47.449970 154.216309 191.152832
v -47.449924 154.221191 238.603058
v -47.449924 154.216309 191.152832
v 48.923832 152.737793 216.384781
v 45.951176 10.387181 216.371078
v 45.923832 152.737305 216.384781
v 45.923832 152.737793 213.384781
v 48.923832 152.738266 213.384781
v 45.951176 10.387707 213.371140
v 94.937996 -23.725094 74.203156
v 94.937012 -35.587406 74.203156
v 97.937004 -35.587406 74.203156
v 97.938004 -23.725094 74.203156
v -48.968979 7.375004 201.502945
v -48.968506 10.375005 201.502945
v -48.968979 7.375003 204.502945
v 48.892597 152.737793 201.502945
v 45.892597 152.737305 201.502945
v 45.919945 10.387182 201.502945
v 45.919945 10.387182 204.502945
v 45.892597 152.737305 204.502945
v 48.892597 152.737793 204.502945
v 94.937996 -23.712389 38.609406
v 94.937996 -23.712389 62.333969
v 94.936996 -11.850081 38.609406
v 94.936996 -11.850082 62.333969
v 97.937050 -11.850082 62.333969
v 97.938004 -23.712389 62.333969
v 97.937050 -11.850081 38.609406
v 97.938004 -23.712389 38.609406
v 48.950180 7.379364 213.377975
v 48.949970 10.379359 213.377975
v -45.950188 10.370598 213.377975
v -45.950188 10.370598 216.377960
v -45.949974 7.370598 216.377960
v 48.949970 10.379359 216.377960
v 48.950180 7.379364 216.377960
v 23.725090 154.230957 238.609863
v -23.725096 154.230957 238.609863
v 23.725090 154.226074 262.334503
v -23.725096 154.226074 262.334503
v -23.725096 151.226074 262.333496
v -23.725096 151.230957 238.608887
v 23.725090 151.226074 262.333496
v 23.725090 151.230957 238.608887
v -48.948246 152.737793 201.502945
v -45.948246 152.736786 201.502945
v -45.948246 152.736786 204.502945
v -48.948246 152.737793 204.502945
v -48.989243 10.388183 204.502945
v 94.930122 11.881367 14.890612
v 94.934792 -35.568871 14.890609
v 94.932327 11.881366 38.615238
v 94.936996 -35.568871 38.615238
v 97.937004 -35.568871 38.615238
v 97.934799 -35.568871 14.890609
v 97.932335 11.881366 38.615238
v 97.930122 11.881367 14.890612
v 47.499996 154.221191 238.315460
v 47.500259 151.221191 238.316376
v 35.499996 154.220261 238.315460
v 23.499996 154.219254 238.315460
v 35.500259 151.220245 238.316376
v 23.500259 151.219238 238.316376
v 47.500259 151.224594 250.316376
v 45.892597 151.226593 256.316437
v 35.500259 151.223679 250.316376
v 41.500259 151.227081 260.708496
v 35.500259 151.227081 262.316376
v 23.500259 151.226074 262.316376
v 23.500259 151.222672 250.316376
v 47.499996 154.224670 250.315430
v 45.892334 154.226593 256.315430
v 41.499996 154.227066 260.707520
v 35.499996 154.227066 262.315430
v 23.499996 154.226074 262.315430
v 23.499996 154.222672 250.315430
v 35.499996 154.223663 250.315430
v 48.918949 7.379365 201.502945
v -45.981209 7.370599 201.502945
v 48.918686 10.379360 201.502945
v -45.981419 10.370599 201.502945
v -45.981419 10.370599 204.502945
v -45.981209 7.370598 204.502945
v 48.918686 10.379360 204.502945
v 48.918949 7.379365 204.502945
v -94.877914 -12.124990 62.315445
v -97.877914 -12.124990 62.314972
v -94.876709 -12.124989 50.315445
v -94.875443 -12.124989 38.315441
v -97.876701 -12.124989 50.314968
v -97.875450 -12.124989 38.314919
v -97.877914 -0.124988 62.314972
v -97.877655 5.875013 60.707039
v -97.876701 -0.124987 50.314968
v -97.877182 10.267083 56.314968
v -97.876701 11.875014 50.314968
v -97.875450 11.875014 38.314919
v -97.875450 -0.124987 38.314919
v -94.877914 -0.124988 62.315445
v -94.877647 5.875013 60.707516
v -94.877182 10.267083 56.315445
v -94.876709 11.875014 50.315445
v -94.875443 11.875014 38.315441
v -94.875443 -0.124987 38.315441
v -94.876709 -0.124987 50.315445
v -97.874504 -23.725094 74.203156
v -97.874504 -23.725092 38.615238
v -97.875488 -35.587406 74.203156
v -94.875496 -35.587402 38.615238
v -94.874496 -23.725092 38.615238
v -94.875496 -35.587406 74.203156
v -94.874496 -23.725094 74.203156
v -97.874504 -23.712389 62.333969
v -97.875504 -11.850081 38.609406
v -97.875504 -11.850082 62.333969
v -94.875443 -11.850082 62.333969
v -94.874496 -23.712389 62.333969
v -94.875443 -11.850081 38.609406
v -97.882370 11.881367 14.890612
v -97.877708 -35.568871 14.890609
v -97.880173 11.881366 38.615238
v -97.875504 -35.568871 38.615238
v -94.877701 -35.568871 14.890609
v -94.880165 11.881366 38.615238
v -94.882378 11.881367 14.890612
vt 0.647863 0.498085
vt 0.663525 0.498085
vt 0.663525 0.482423
vt 0.647863 0.482423
vt 0.001527 0.001527
vt 0.001527 0.496281
vt 0.248904 0.496281
vt 0.248904 0.001527
vt 0.502391 0.630564
vt 0.502391 0.693125
vt 0.564952 0.693125
vt 0.564952 0.630564
vt 0.567647 0.852043
vt 0.536546 0.852043
vt 0.536546 0.883144
vt 0.567647 0.883144
vt 0.691694 0.126650
vt 0.754255 0.126650
vt 0.754255 0.064088
vt 0.691694 0.064088
vt 0.691694 0.254826
vt 0.691694 0.192265
vt 0.629133 0.192265
vt 0.629133 0.254826
vt 0.775944 0.630564
vt 0.760335 0.630564
vt 0.760335 0.646172
vt 0.775944 0.646172
vt 0.731602 0.466774
vt 0.731602 0.482414
vt 0.747242 0.482414
vt 0.747242 0.466774
vt 0.757310 0.374991
vt 0.788432 0.374991
vt 0.788432 0.001527
vt 0.757310 0.001527
vt 0.310033 0.624458
vt 0.310033 0.561897
vt 0.247472 0.561897
vt 0.247472 0.624458
vt 0.745872 0.032808
vt 0.722975 0.009910
vt 0.691694 0.001527
vt 0.100581 0.749766
vt 0.100581 0.765406
vt 0.116221 0.765406
vt 0.116221 0.749766
vt 0.604857 0.758740
vt 0.604857 0.774364
vt 0.620481 0.774364
vt 0.620481 0.758740
vt 0.362165 0.755690
vt 0.346525 0.755690
vt 0.346525 0.771330
vt 0.362165 0.771330
vt 0.791486 0.751509
vt 0.822608 0.751509
vt 0.822608 0.378046
vt 0.791487 0.378046
vt 0.758744 0.546608
vt 0.788225 0.546608
vt 0.788225 0.531868
vt 0.758744 0.531868
vt 0.661668 0.819135
vt 0.630567 0.819135
vt 0.630567 0.881336
vt 0.661668 0.881336
vt 0.727996 0.907520
vt 0.757476 0.907520
vt 0.757476 0.892779
vt 0.727996 0.892779
vt 0.490355 0.749766
vt 0.474715 0.749766
vt 0.474715 0.765406
vt 0.490355 0.765406
vt 0.754255 0.320442
vt 0.745872 0.289161
vt 0.691694 0.320442
vt 0.722975 0.266264
vt 0.691694 0.257881
vt 0.193526 0.499336
vt 0.162426 0.499336
vt 0.162426 0.872543
vt 0.193526 0.872543
vt 0.196581 0.872514
vt 0.227679 0.872514
vt 0.227679 0.499336
vt 0.196581 0.499336
vt 0.727996 0.937000
vt 0.757476 0.937000
vt 0.959196 0.878713
vt 0.959196 0.629907
vt 0.928095 0.629907
vt 0.928095 0.878713
vt 0.471660 0.843069
vt 0.440559 0.843069
vt 0.440559 0.874170
vt 0.471660 0.874170
vt 0.728547 0.386058
vt 0.697447 0.386058
vt 0.697447 0.448259
vt 0.728547 0.448259
vt 0.627513 0.564948
vt 0.619130 0.533668
vt 0.564952 0.564948
vt 0.596232 0.510770
vt 0.564952 0.502387
vt 0.660236 0.386058
vt 0.629133 0.386058
vt 0.629133 0.479368
vt 0.660236 0.479368
vt 0.629133 0.257881
vt 0.629133 0.320442
vt 0.309315 0.755690
vt 0.247472 0.755690
vt 0.247472 0.879376
vt 0.309315 0.879376
vt 0.627513 0.755686
vt 0.627513 0.693125
vt 0.564952 0.755686
vt 0.372594 0.624458
vt 0.372594 0.561897
vt 0.758744 0.576088
vt 0.788225 0.576088
vt 0.856765 0.001527
vt 0.825663 0.001527
vt 0.825663 0.374748
vt 0.856765 0.374748
vt 0.629133 0.482423
vt 0.629133 0.498098
vt 0.644808 0.498098
vt 0.644808 0.482423
vt 0.499336 0.001527
vt 0.251959 0.001527
vt 0.251959 0.496281
vt 0.499336 0.496281
vt 0.619130 0.661844
vt 0.596232 0.638947
vt 0.691694 0.383003
vt 0.629133 0.383003
vt 0.731602 0.442164
vt 0.731602 0.457804
vt 0.747242 0.457804
vt 0.747242 0.442164
vt 0.564952 0.627509
vt 0.627513 0.627509
vt 0.692406 0.630564
vt 0.630567 0.630564
vt 0.630567 0.816081
vt 0.692406 0.816081
vt 0.887485 0.754564
vt 0.856384 0.754564
vt 0.856384 0.878967
vt 0.887485 0.878967
vt 0.001527 0.499336
vt 0.001527 0.746711
vt 0.125215 0.746711
vt 0.125215 0.499336
vt 0.893972 0.374703
vt 0.925070 0.374703
vt 0.925070 0.001527
vt 0.893972 0.001527
vt 0.757476 0.863299
vt 0.727996 0.863299
vt 0.758744 0.620309
vt 0.788225 0.620309
vt 0.788225 0.590829
vt 0.758744 0.590829
vt 0.993351 0.629907
vt 0.962251 0.629907
vt 0.962251 0.878713
vt 0.993351 0.878713
vt 0.626078 0.251957
vt 0.502391 0.251957
vt 0.502391 0.499332
vt 0.626078 0.499332
vt 0.747253 0.386058
vt 0.731602 0.386058
vt 0.731602 0.401709
vt 0.747253 0.401709
vt 0.747253 0.404764
vt 0.731602 0.404764
vt 0.731602 0.420415
vt 0.747253 0.420415
vt 0.630567 0.502387
vt 0.630567 0.564948
vt 0.693128 0.564948
vt 0.693128 0.502387
vt 0.754255 0.383003
vt 0.890917 0.374705
vt 0.890917 0.001527
vt 0.859819 0.001527
vt 0.859819 0.374705
vt 0.757310 0.407526
vt 0.786790 0.407526
vt 0.786790 0.378046
vt 0.757310 0.378046
vt 0.502391 0.564948
vt 0.502391 0.502387
vt 0.629133 0.064088
vt 0.629133 0.001527
vt 0.666580 0.482423
vt 0.666580 0.498080
vt 0.682237 0.498080
vt 0.682237 0.482423
vt 0.499336 0.499336
vt 0.375648 0.499336
vt 0.375648 0.746711
vt 0.499336 0.746711
vt 0.791486 0.754564
vt 0.791486 0.878250
vt 0.853329 0.878250
vt 0.853329 0.754564
vt 0.697447 0.451314
vt 0.697447 0.482414
vt 0.728547 0.482414
vt 0.728547 0.451314
vt 0.921640 0.754564
vt 0.890539 0.754564
vt 0.890539 0.878967
vt 0.921640 0.878967
vt 0.890917 0.751222
vt 0.890917 0.378046
vt 0.859819 0.378046
vt 0.859819 0.751222
vt 0.032616 0.998473
vt 0.032616 0.749766
vt 0.001527 0.749766
vt 0.001527 0.998473
vt 0.856765 0.378046
vt 0.825663 0.378046
vt 0.825663 0.751266
vt 0.856765 0.751266
vt 0.788225 0.502387
vt 0.758744 0.502387
vt 0.731602 0.423469
vt 0.731602 0.439110
vt 0.747242 0.439110
vt 0.747242 0.423469
vt 0.760335 0.664834
vt 0.775943 0.664834
vt 0.775943 0.649227
vt 0.760335 0.649227
vt 0.822608 0.374991
vt 0.822608 0.001527
vt 0.791486 0.001527
vt 0.791486 0.374991
vt 0.925041 0.750873
vt 0.925041 0.378046
vt 0.893972 0.378046
vt 0.893972 0.750873
vt 0.993380 0.001527
vt 0.962280 0.001527
vt 0.962280 0.250325
vt 0.993380 0.250325
vt 0.629133 0.126650
vt 0.159371 0.499336
vt 0.128269 0.499336
vt 0.128269 0.872555
vt 0.159371 0.872555
vt 0.310033 0.499336
vt 0.247472 0.499336
vt 0.727996 0.848559
vt 0.757476 0.848559
vt 0.757476 0.819078
vt 0.727996 0.819078
vt 0.601802 0.758741
vt 0.570701 0.758741
vt 0.570701 0.883144
vt 0.601802 0.883144
vt 0.757310 0.451747
vt 0.786790 0.451747
vt 0.786790 0.422267
vt 0.757310 0.422267
vt 0.343470 0.755690
vt 0.312369 0.755690
vt 0.312369 0.880093
vt 0.343470 0.880093
vt 0.227681 0.875569
vt 0.196581 0.875569
vt 0.196581 0.937770
vt 0.227681 0.937770
vt 0.364211 0.530617
vt 0.341313 0.507719
vt 0.993351 0.378046
vt 0.962251 0.378046
vt 0.962251 0.626852
vt 0.993351 0.626852
vt 0.754255 0.254826
vt 0.754255 0.192265
vt 0.757310 0.495968
vt 0.786790 0.495968
vt 0.786790 0.466488
vt 0.757310 0.466488
vt 0.629133 0.129704
vt 0.691694 0.129704
vt 0.502391 0.627509
vt 0.745872 0.160985
vt 0.722975 0.138087
vt 0.928095 0.626852
vt 0.959196 0.626852
vt 0.959196 0.378046
vt 0.928095 0.378046
vt 0.928125 0.250334
vt 0.959225 0.250334
vt 0.959225 0.001527
vt 0.928125 0.001527
vt 0.567647 0.758741
vt 0.536546 0.758741
vt 0.502391 0.755686
vt 0.695461 0.907520
vt 0.724941 0.907520
vt 0.724941 0.892779
vt 0.695461 0.892779
vt 0.695461 0.937000
vt 0.724941 0.937000
vt 0.372594 0.690074
vt 0.364211 0.658794
vt 0.310033 0.690074
vt 0.341313 0.635896
vt 0.310033 0.627513
vt 0.694392 0.386058
vt 0.663291 0.386058
vt 0.663291 0.479361
vt 0.694392 0.479361
vt 0.437504 0.749766
vt 0.375649 0.749766
vt 0.375649 0.873477
vt 0.437504 0.873477
vt 0.755690 0.627509
vt 0.755690 0.564948
vt 0.693128 0.627509
vt 0.747306 0.533668
vt 0.724409 0.510770
vt 0.310033 0.752635
vt 0.372594 0.752635
vt 0.724941 0.863299
vt 0.695461 0.863299
vt 0.695461 0.630564
vt 0.695461 0.816023
vt 0.757281 0.816023
vt 0.757281 0.630564
vt 0.247472 0.690074
vt 0.247472 0.627513
vt 0.035670 0.749766
vt 0.035670 0.873478
vt 0.097526 0.873478
vt 0.097526 0.749766
vt 0.128269 0.875610
vt 0.128269 0.906711
vt 0.159370 0.906711
vt 0.159370 0.875610
vt 0.502391 0.001527
vt 0.502391 0.248903
vt 0.626078 0.248903
vt 0.626078 0.001527
vt 0.695461 0.848559
vt 0.724941 0.848559
vt 0.724941 0.819078
vt 0.695461 0.819078
vt 0.533491 0.758741
vt 0.502391 0.758741
vt 0.502391 0.883144
vt 0.533491 0.883144
vt 0.193526 0.875597
vt 0.162426 0.875597
vt 0.162426 0.937799
vt 0.193526 0.937799
vt 0.247472 0.752635
vt 0.471660 0.749766
vt 0.440559 0.749766
vt 0.630567 0.627509
vn 0.0001 -0.0001 -1.0000
vn 0.0000 -0.0000 -1.0000
vn 0.0000 -1.0000 0.0001
vn 1.0000 0.0000 0.0001
vn 1.0000 0.0016 0.0001
vn 0.0000 0.0000 1.0000
vn 0.0000 -1.0000 -0.0001
vn -0.0001 1.0000 -0.0003
vn -0.0001 1.0000 0.0012
vn 0.0000 -1.0000 0.0000
vn 0.0003 1.0000 0.0002
vn -0.0000 0.0001 -1.0000
vn 0.0001 -1.0000 0.0003
vn -0.0002 1.0000 0.0000
vn 1.0000 0.0001 0.0000
vn -0.5000 -0.0001 0.8660
vn -0.1305 -0.0002 0.9914
vn -0.0000 0.9914 0.1306
vn -0.0000 0.9914 0.1305
vn -0.0001 0.8660 0.5000
vn 0.0000 1.0000 0.0001
vn -0.0016 1.0000 0.0001
vn -1.0000 0.0003 0.0000
vn -0.0003 0.0001 -1.0000
vn -0.0004 0.0001 -1.0000
vn 0.0000 1.0000 0.0000
vn -1.0000 0.0000 -0.0001
vn -0.0000 1.0000 -0.0002
vn -0.8660 -0.0001 0.5000
vn 1.0000 0.0002 0.0000
vn -1.0000 -0.0002 0.0000
vn 0.0000 1.0000 -0.0001
vn -0.0002 1.0000 0.0002
vn 1.0000 -0.0001 -0.0000
vn 1.0000 0.0000 0.0000
vn 0.0000 1.0000 0.0002
vn -0.0001 0.5000 0.8660
vn -1.0000 0.0000 0.0000
vn -0.9914 -0.0000 0.1305
vn 1.0000 0.0001 -0.0001
vn 0.0000 -0.0001 1.0000
vn 0.9914 0.0001 0.1305
vn -1.0000 0.0002 0.0000
vn 0.0000 -1.0000 -0.0002
vn -1.0000 -0.0001 0.0000
vn 0.0000 -0.0003 1.0000
vn -0.0000 0.0001 1.0000
vn 0.0000 -0.0002 1.0000
vn 0.0003 1.0000 0.0000
vn 0.0001 -1.0000 0.0000
vn -0.0002 0.1305 0.9914
vn -0.0002 0.0000 1.0000
vn 0.5000 0.0003 0.8660
vn 0.8660 0.0002 0.5000
vn 0.0000 0.0003 1.0000
vn 0.1305 0.0003 0.9914
vn -1.0000 0.0001 0.0000
vn -1.0000 -0.0001 0.0001
usemtl metal3
s 1
f 87/1/1 2/2/2 1/3/1 27/4/2
f 53/5/3 52/6/3 50/7/3 51/8/3
f 30/9/4 32/10/4 49/11/5 43/12/4
f 65/13/6 66/14/6 67/15/6 64/16/6
f 8/17/7 5/18/7 10/19/7 12/20/7
f 131/21/8 132/22/9 115/23/8 116/24/8
f 134/25/10 138/26/10 70/27/10 68/28/10
f 26/29/11 28/30/11 29/31/11 24/32/11
f 29/33/12 28/34/12 87/35/12 27/36/12
f 117/37/13 121/38/13 125/39/13 118/40/13
f 10/19/7 11/41/7 12/20/7
f 11/41/7 13/42/7 12/20/7
f 13/42/7 14/43/7 12/20/7
f 72/44/14 75/45/14 76/46/14 71/47/14
f 2/48/10 89/49/10 3/50/10 1/51/10
f 135/52/15 139/53/15 140/54/15 133/55/15
f 104/56/6 137/57/6 102/58/6 103/59/6
f 18/60/16 11/61/16 10/62/17 17/63/17
f 106/64/10 110/65/10 109/66/10 108/67/10
f 46/68/18 40/69/19 39/70/20 45/71/20
f 86/72/15 90/73/15 91/74/15 85/75/15
f 20/76/21 19/77/21 23/78/22
f 19/77/21 18/79/21 23/78/22
f 18/79/21 17/80/21 23/78/22
f 24/81/23 29/82/23 27/83/23 25/84/23
f 86/85/24 63/86/25 61/87/24 62/88/25
f 47/89/26 41/90/26 40/69/19 46/68/18
f 136/91/2 135/92/2 133/93/2 134/94/2
f 163/95/6 166/96/6 167/97/6 161/98/6
f 175/99/10 178/100/10 164/101/10 177/102/10
f 36/103/27 37/104/27 38/105/27
f 37/104/27 39/106/27 38/105/27
f 39/106/27 40/107/27 38/105/27
f 64/108/28 67/109/28 84/110/28 77/111/28
f 4/112/21 6/113/21 23/78/22 17/80/21
f 84/114/15 83/115/15 81/116/15 82/117/15
f 47/118/4 46/119/4 49/11/5 48/120/4
f 117/37/13 114/121/13 119/122/13 121/38/13
f 19/123/29 13/124/29 11/61/16 18/60/16
f 90/125/30 86/126/30 62/127/30 58/128/30
f 1/129/31 3/130/31 25/131/31 27/132/31
f 57/133/32 56/134/32 54/135/32 55/136/32
f 46/119/4 45/137/4 49/11/5
f 45/137/4 44/138/4 49/11/5
f 44/138/4 43/12/4 49/11/5
f 22/139/21 23/78/22 6/113/21 7/140/21
f 58/141/33 62/142/33 61/143/33 60/144/33
f 34/145/27 31/146/27 36/103/27 38/105/27
f 67/147/34 66/148/34 109/149/34 84/150/34
f 51/151/35 55/152/35 54/153/35 53/154/35
f 95/155/36 94/156/36 92/157/36 93/158/36
f 76/159/6 75/160/6 74/161/6 139/162/6
f 45/71/20 39/70/20 37/163/37 44/164/37
f 21/165/38 15/166/38 14/167/39 20/168/39
f 50/169/2 57/170/2 55/171/2 51/172/2
f 112/173/40 111/174/40 109/175/40 110/176/40
f 20/168/39 14/167/39 13/124/29 19/123/29
f 70/177/6 138/178/6 137/179/6 104/180/6
f 3/181/6 89/182/6 88/183/6 25/184/6
f 141/185/4 143/186/4 160/187/5 154/188/4
f 21/189/21 20/76/21 23/78/22 22/139/21
f 60/190/41 59/191/41 90/192/41 58/193/41
f 126/194/42 119/195/42 114/196/15 113/197/15
f 42/198/27 38/105/27 40/107/27 41/199/27
f 16/200/7 12/20/7 14/43/7 15/201/7
f 68/202/43 70/203/43 104/204/43 69/205/43
f 99/206/44 98/207/44 96/208/44 97/209/44
f 80/210/45 79/211/45 77/212/45 78/213/45
f 78/214/6 82/215/6 81/216/6 80/217/6
f 95/218/46 96/219/47 98/220/46 94/221/47
f 73/222/2 72/223/2 71/224/2 135/225/2
f 87/226/2 86/227/2 85/228/2 2/229/2
f 71/230/30 76/231/30 139/232/30 135/233/30
f 17/63/17 10/62/17 5/234/48 4/235/48
f 100/236/49 103/237/49 102/238/49 101/239/49
f 136/240/2 134/241/2 68/242/2 69/243/2
f 88/244/41 26/245/41 24/246/41 25/247/41
f 101/248/2 136/249/2 69/250/2 100/251/2
f 85/252/50 91/253/50 89/254/50 2/255/50
f 8/17/7 12/20/7 16/200/7 9/256/7
f 69/257/23 104/258/23 103/259/23 100/260/23
f 125/39/13 121/38/13 123/261/13 124/262/13
f 43/263/51 36/264/51 31/265/52 30/266/52
f 44/164/37 37/163/37 36/264/51 43/263/51
f 52/267/38 56/268/38 57/269/38 50/270/38
f 128/271/53 122/272/53 120/273/54 127/274/54
f 105/275/2 112/276/2 110/277/2 106/278/2
f 107/279/26 111/280/26 112/281/26 105/282/26
f 119/122/13 120/283/13 121/38/13
f 120/283/13 122/284/13 121/38/13
f 122/284/13 123/261/13 121/38/13
f 133/285/50 140/286/50 138/287/50 134/288/50
f 130/289/8 129/290/8 132/22/9 131/21/8
f 130/291/55 124/292/55 123/293/56 129/294/56
f 127/274/54 120/273/54 119/195/42 126/194/42
f 113/295/8 115/23/8 132/22/9 126/296/8
f 34/145/27 38/105/27 42/198/27 35/297/27
f 129/290/8 128/298/8 132/22/9
f 128/298/8 127/299/8 132/22/9
f 127/299/8 126/296/8 132/22/9
f 129/294/56 123/293/56 122/272/53 128/271/53
f 140/300/6 139/301/6 137/302/6 138/303/6
f 91/304/6 90/305/6 88/306/6 89/307/6
f 108/308/10 109/309/10 66/14/10 65/13/10
f 48/120/4 49/11/5 32/10/4 33/310/4
f 157/311/18 151/312/19 150/313/20 156/314/20
f 158/315/26 152/316/26 151/312/19 157/311/18
f 147/317/27 148/318/27 149/319/27
f 148/318/27 150/320/27 149/319/27
f 150/320/27 151/321/27 149/319/27
f 161/322/26 167/323/26 165/324/26 162/325/26
f 165/326/15 173/327/15 171/328/15 172/329/15
f 158/330/4 157/331/4 160/187/5 159/332/4
f 157/331/4 156/333/4 160/187/5
f 156/333/4 155/334/4 160/187/5
f 155/334/4 154/188/4 160/187/5
f 145/335/27 142/336/27 147/317/27 149/319/27
f 156/314/20 150/313/20 148/337/37 155/338/37
f 177/339/57 163/340/57 161/341/57 162/342/57
f 153/343/27 149/319/27 151/321/27 152/344/27
f 170/345/45 169/346/45 162/347/45 168/348/45
f 168/349/6 172/350/6 171/351/6 170/352/6
f 177/353/58 176/354/58 174/355/58 175/356/58
f 154/357/51 147/358/51 142/359/52 141/360/52
f 155/338/37 148/337/37 147/358/51 154/357/51
f 174/361/2 180/362/2 178/363/2 175/364/2
f 176/365/26 179/366/26 180/367/26 174/368/26
f 145/335/27 149/319/27 153/343/27 146/369/27
f 177/370/10 164/371/10 166/96/10 163/95/10
f 159/332/4 160/187/5 143/186/4 144/372/4
